<svg version="1.2" xmlns="http://www.w3.org/2000/svg" viewBox="0 0 763 763" width="763" height="763">
	<title>Jatinox_Logotipo-svg</title>
	<style>
		.s0 { fill: #ffffff } 
	</style>
	<path id="Layer" fill-rule="evenodd" class="s0" d="m23.5 415.2c-8.7 0-14.5-1.5-17.5-4.4-3-3-4.6-8.5-4.6-16.7v-18.5l20.9-4v26.7h40.7v-72.3h20.7v68c0 8.1-1.5 13.7-4.6 16.7-3.1 3-8.9 4.4-17.5 4.4h-38.1zm67.9 0l50.4-89.1h20l51.1 89.1h-23.3l-10.7-19.5h-56.5l-10.4 19.5zm39.8-35.5h39l-19.2-36.2zm119-37.6v73.1h-20.8v-73.1h-40.9v-16h102.7v16zm52.4-16h20.7v89.1h-20.7zm38.9 0h14.2l62.7 52.5c2.1 1.7 4 3.4 5.6 4.9q2.4 2.3 4.5 4.8c-0.3-5-0.6-8.5-0.7-10.6-0.1-2.1-0.2-3.7-0.2-4.8v-46.8h18.6v89.1h-14.2l-65.4-55.1c-1.6-1.4-3-2.7-4.1-3.8-1.2-1.1-2.3-2.3-3.3-3.5q0.4 4.2 0.6 7.8c0.1 2.4 0.2 4.6 0.2 6.4v48.1h-18.5zm118.1 21.1c0-8.1 1.5-13.6 4.6-16.6 3-3 8.9-4.5 17.5-4.5h65.6c8.7 0 14.5 1.5 17.5 4.5 3 3 4.6 8.5 4.6 16.6v47c0 8.2-1.5 13.7-4.6 16.7-3 3-8.9 4.4-17.5 4.4h-65.6c-8.7 0-14.5-1.5-17.5-4.4-3-2.9-4.6-8.5-4.6-16.7zm20.7 51.3h68.4v-56.4h-68.4zm96.2 16.7l42.3-45.7-43-43.4h27.5l28.5 30.3 27-30.3h23.9l-38.9 41 48.1 48.1h-28.2l-32.6-34.5-30.1 34.5zm-148.3 153.8l321.2-175.9c7.5-4.1 14.9 5.7 8.9 11.8l-212.9 218.1c-18.8 19.3-49.6 20.3-69.7 2.2l-48.9-44.1c-3.8-3.5-3.1-9.7 1.4-12.1zm-25.4-9.6l-96.4-87.2c-5.1-4.6-1.8-13 5-13l254-0.3c7.7 0 10.3 10.3 3.6 14l-157.5 87.5c-2.8 1.6-6.3 1.2-8.7-1zm8.7-380.4l157.9 87.4c6.7 3.7 4.1 14-3.6 14l-254.3-0.2c-6.8 0-10.1-8.4-5-13l96.4-87.2c2.3-2.2 5.8-2.6 8.6-1zm15.3-20.7l52.8-47.6c17.9-16.1 45.3-15.2 62.1 2l216.6 221.9c6 6.1-1.4 15.9-8.9 11.8l-321.2-176c-4.5-2.4-5.2-8.6-1.4-12.1z"/>
</svg>